<svg width="24" height="19" viewBox="0 0 24 19" fill="none" xmlns="http://www.w3.org/2000/svg">
<path fill-rule="evenodd" clip-rule="evenodd" d="M22.8827 1.29258C23.5043 1.81876 23.5043 2.67187 22.8827 3.19805L12.2703 12.1805C11.6487 12.7067 10.6408 12.7067 10.0191 12.1805L6.83538 9.48576C6.21373 8.95958 6.21373 8.10647 6.83538 7.58029C7.45704 7.05411 8.46495 7.05411 9.08661 7.58029L11.1447 9.3223L20.6315 1.29258C21.2531 0.766404 22.261 0.766404 22.8827 1.29258Z" fill="#0F5B85"/>
<path fill-rule="evenodd" clip-rule="evenodd" d="M3.71433 2.69473C3.5736 2.69473 3.43864 2.74205 3.33913 2.82628C3.23962 2.91051 3.18371 3.02474 3.18371 3.14386V15.7193C3.18371 15.8384 3.23962 15.9526 3.33913 16.0369C3.43864 16.1211 3.5736 16.1684 3.71433 16.1684H18.5716C18.7124 16.1684 18.8473 16.1211 18.9469 16.0369C19.0464 15.9526 19.1023 15.8384 19.1023 15.7193V9.43157C19.1023 8.68744 19.815 8.0842 20.6941 8.0842C21.5733 8.0842 22.286 8.68744 22.286 9.43157V15.7193C22.286 16.5531 21.8946 17.3527 21.1981 17.9423C20.5015 18.5319 19.5568 18.8631 18.5716 18.8631H3.71433C2.72923 18.8631 1.78447 18.5319 1.0879 17.9423C0.39133 17.3527 0 16.5531 0 15.7193V3.14386C0 2.31005 0.39133 1.5104 1.0879 0.920814C1.78447 0.331226 2.72923 0 3.71433 0H15.3879C16.2671 0 16.9798 0.603237 16.9798 1.34737C16.9798 2.0915 16.2671 2.69473 15.3879 2.69473H3.71433Z" fill="#0F5B85"/>
</svg>
